<svg version="1.1" id="Layer_1" xmlns="http://www.w3.org/2000/svg" xmlns:xlink="http://www.w3.org/1999/xlink" x="0px" y="0px"
	 width="100%" viewBox="0 0 592 384" enable-background="new 0 0 592 384" xml:space="preserve">
<path fill="#000000" opacity="1.000000" stroke="none" 
	d="
M482.818634,300.237000 
	C451.839478,301.786896 423.989380,292.412506 396.843964,279.785889 
	C367.848083,266.298492 338.355316,253.991821 308.142517,243.441757 
	C304.546265,242.185959 301.439148,242.599686 298.015503,243.728088 
	C264.241760,254.859558 232.122238,269.889038 200.051697,285.054443 
	C180.565475,294.269043 160.496704,301.638763 138.879349,304.143280 
	C116.553406,306.729919 95.683990,303.241516 74.785622,294.119751 
	C44.673210,280.976196 28.812250,257.969086 22.081697,227.252335 
	C18.946377,212.943405 19.202955,198.687683 23.422812,184.374298 
	C28.068699,168.615860 46.167519,168.041153 54.643120,178.310562 
	C57.939903,182.305099 60.761383,186.612747 63.275360,191.146332 
	C67.397812,198.580627 71.810295,205.785049 77.600800,212.139587 
	C88.345627,223.931061 101.158195,226.388580 115.712624,221.027237 
	C127.770378,216.585602 137.890945,208.865265 147.666092,200.803741 
	C164.000595,187.332733 180.250687,173.868652 199.281845,164.122894 
	C226.878494,149.990829 254.081467,149.678986 281.297577,164.944168 
	C284.911682,166.971252 288.759186,168.663528 292.650940,170.097229 
	C300.680389,173.055252 308.576202,172.709442 316.325409,168.746689 
	C325.335724,164.139023 333.535065,157.726227 343.713928,155.665176 
	C364.217377,151.513596 384.015015,153.984665 403.323029,161.965912 
	C423.931061,170.484528 441.328033,183.861267 458.640686,197.460175 
	C464.923676,202.395401 471.120819,207.486618 478.033020,211.556824 
	C490.558411,218.932266 503.526367,219.412994 516.819824,213.813278 
	C520.432495,212.291443 523.003052,209.800446 525.343323,206.509705 
	C532.031555,197.105240 537.558167,187.069321 543.064209,176.972473 
	C547.406250,169.010254 552.682495,162.049149 563.350403,162.588623 
	C567.920654,162.819717 571.324890,164.624802 573.942505,168.182266 
	C577.384033,172.859497 579.221924,178.198547 579.805664,183.905136 
	C581.504333,200.512039 582.642517,217.258591 577.334229,233.360580 
	C570.112976,255.265274 557.699707,273.097717 536.025513,283.551453 
	C523.120728,289.775574 510.766327,297.114471 496.195343,298.859039 
	C491.903564,299.372894 487.597382,299.766876 482.818634,300.237000 
z"/>
<path fill="#000000" opacity="1.000000" stroke="none" 
	d="
M218.821228,75.472214 
	C212.763931,91.989288 200.468689,101.314911 184.926376,106.849686 
	C160.338699,115.605606 137.917221,111.851013 117.684174,94.969604 
	C99.349167,79.671837 96.354034,51.492176 117.810760,33.754696 
	C139.528519,15.801416 163.753357,13.163507 189.421280,23.555748 
	C204.245728,29.557758 215.462097,39.604092 219.536209,55.877399 
	C221.140656,62.286091 220.807892,68.740761 218.821228,75.472214 
z"/>
<path fill="#000000" opacity="1.000000" stroke="none" 
	d="
M383.420959,109.936096 
	C374.054932,107.598915 365.632660,104.139633 358.094910,98.744415 
	C335.059814,82.256897 330.947113,50.842197 356.885803,31.270889 
	C383.352386,11.301300 416.291840,14.307274 440.016937,32.081654 
	C458.298767,45.778053 466.279663,75.448112 440.092957,96.295395 
	C423.598419,109.426743 404.625275,113.839630 383.420959,109.936096 
z"/>
<path fill="#000000" opacity="1.000000" stroke="none" 
	d="
M268.134827,323.803009 
	C284.050262,329.699402 300.165344,329.389282 316.317627,328.202087 
	C333.752167,326.920685 347.846710,319.037415 360.079681,306.699280 
	C369.719635,296.976410 384.616089,298.759888 393.166565,309.595673 
	C396.082397,313.290802 395.619354,316.947632 393.853271,320.814911 
	C385.424530,339.271759 372.088562,352.497040 352.757172,359.293671 
	C341.858154,363.125580 330.719788,365.529816 319.062378,365.377655 
	C305.403992,365.199341 291.683197,366.131409 278.093658,365.145508 
	C252.396713,363.281189 229.610535,354.903656 214.380630,332.326172 
	C204.375183,317.493622 206.386505,310.947754 222.504166,303.441406 
	C230.276520,299.821625 236.579559,301.419128 242.636658,306.799194 
	C250.241318,313.553864 257.932068,320.224457 268.134827,323.803009 
z"/>
</svg>