<?xml version="1.0" encoding="UTF-8"?>
<!DOCTYPE svg PUBLIC "-//W3C//DTD SVG 1.1//EN" "http://www.w3.org/Graphics/SVG/1.1/DTD/svg11.dtd">
<svg xmlns="http://www.w3.org/2000/svg" version="1.1" width="768px" height="768px" style="shape-rendering:geometricPrecision; text-rendering:geometricPrecision; image-rendering:optimizeQuality; fill-rule:evenodd; clip-rule:evenodd" xmlns:xlink="http://www.w3.org/1999/xlink">
<g><path style="opacity:0.987" fill="#d4c3e6" d="M 403.5,254.5 C 436.872,260.585 463.872,276.918 484.5,303.5C 462.668,297.143 441.335,298.476 420.5,307.5C 403.337,282 380.004,265 350.5,256.5C 353.01,256.073 355.343,255.407 357.5,254.5C 372.832,253.188 388.165,253.188 403.5,254.5 Z"/></g>
<g><path style="opacity:0.291" fill="#fefdfd" d="M 357.5,254.5 C 355.343,255.407 353.01,256.073 350.5,256.5C 330.915,261.08 313.248,269.58 297.5,282C 263.054,292.779 240.221,315.279 229,349.5C 227.949,360.029 227.116,370.529 226.5,381C 227.885,384.679 228.718,388.512 229,392.5C 230.52,398.093 232.854,403.427 236,408.5C 237.514,396.244 235.681,384.577 230.5,373.5C 230.833,373.167 231.167,372.833 231.5,372.5C 239.049,376.879 245.883,382.212 252,388.5C 251.358,390.807 250.358,393.141 249,395.5C 248.503,397.81 248.337,400.143 248.5,402.5C 252.897,401.699 257.231,400.699 261.5,399.5C 263.733,404.401 267.066,408.401 271.5,411.5C 273.166,413.187 274.5,415.187 275.5,417.5C 274.036,420.262 272.703,423.095 271.5,426C 256.637,430.03 247.304,439.53 243.5,454.5C 240.5,454.5 237.5,454.5 234.5,454.5C 230.911,454.621 229.244,456.454 229.5,460C 230.189,467.507 230.856,475.007 231.5,482.5C 227.878,479.278 224.712,475.612 222,471.5C 221.5,457.504 221.333,443.504 221.5,429.5C 224.323,429.025 226.323,430.025 227.5,432.5C 226.851,435.14 225.851,437.64 224.5,440C 224.388,441.662 225.054,442.829 226.5,443.5C 228.008,441.493 229.842,439.826 232,438.5C 232.678,436.402 232.511,434.402 231.5,432.5C 232.931,432.119 233.764,431.119 234,429.5C 234.232,425.445 234.732,421.445 235.5,417.5C 231.64,413.475 227.973,409.308 224.5,405C 223.423,404.53 222.423,404.697 221.5,405.5C 221.333,378.165 221.5,350.831 222,323.5C 235.833,293.335 258.333,272.501 289.5,261C 292.02,259.237 294.353,257.237 296.5,255C 316.831,254.5 337.164,254.333 357.5,254.5 Z"/></g>
<g><path style="opacity:0.176" fill="#fefdfd" d="M 403.5,254.5 C 423.836,254.333 444.169,254.5 464.5,255C 485.802,272.422 501.635,293.922 512,319.5C 539.695,343.923 549.362,374.257 541,410.5C 539.08,416.597 536.58,422.43 533.5,428C 533.345,431.492 531.845,434.659 529,437.5C 527.991,439.025 527.491,440.692 527.5,442.5C 528.873,442.343 530.207,442.51 531.5,443C 533.34,445.669 535.34,448.169 537.5,450.5C 539.981,448.072 541.315,445.072 541.5,441.5C 542.5,441.5 543.5,441.5 544.5,441.5C 544.666,446.511 544.499,451.511 544,456.5C 537.561,465.727 531.395,475.06 525.5,484.5C 526.874,474.895 527.54,465.228 527.5,455.5C 525.784,455.371 524.117,455.038 522.5,454.5C 519.833,454.5 517.167,454.5 514.5,454.5C 511.309,446.613 506.975,439.446 501.5,433C 498.408,431.454 495.408,429.954 492.5,428.5C 496.314,429.019 498.314,427.353 498.5,423.5C 508.074,414.054 514.574,402.721 518,389.5C 521.729,395.937 523.895,402.937 524.5,410.5C 521.213,411.264 518.546,413.097 516.5,416C 518.441,417.903 520.774,418.736 523.5,418.5C 538.325,382.915 530.825,353.248 501,329.5C 496.467,320.151 490.967,311.484 484.5,303.5C 463.872,276.918 436.872,260.585 403.5,254.5 Z"/></g>
<g><path style="opacity:0.992" fill="#fdd7df" d="M 350.5,256.5 C 380.004,265 403.337,282 420.5,307.5C 398.79,318.546 383.79,335.546 375.5,358.5C 355.831,358.333 336.164,358.5 316.5,359C 316,359.5 315.5,360 315,360.5C 314.826,365.351 314.326,370.018 313.5,374.5C 311.924,373.717 310.591,372.55 309.5,371C 307.866,370.506 306.199,370.34 304.5,370.5C 304.813,365.299 302.98,364.299 299,367.5C 295,364.182 290.5,361.682 285.5,360C 281.375,359.146 277.375,359.48 273.5,361C 267.922,365.907 263.089,371.407 259,377.5C 257.898,385.101 258.731,392.435 261.5,399.5C 257.231,400.699 252.897,401.699 248.5,402.5C 248.337,400.143 248.503,397.81 249,395.5C 250.358,393.141 251.358,390.807 252,388.5C 245.883,382.212 239.049,376.879 231.5,372.5C 231.167,372.833 230.833,373.167 230.5,373.5C 235.681,384.577 237.514,396.244 236,408.5C 232.854,403.427 230.52,398.093 229,392.5C 228.718,388.512 227.885,384.679 226.5,381C 227.116,370.529 227.949,360.029 229,349.5C 240.221,315.279 263.054,292.779 297.5,282C 313.248,269.58 330.915,261.08 350.5,256.5 Z"/></g>
<g><path style="opacity:1" fill="#fd6a88" d="M 336.5,300.5 C 346.267,300.073 348.6,303.906 343.5,312C 333.415,312.76 331.082,308.927 336.5,300.5 Z"/></g>
<g><path style="opacity:0.994" fill="#fef0f3" d="M 484.5,303.5 C 490.967,311.484 496.467,320.151 501,329.5C 530.825,353.248 538.325,382.915 523.5,418.5C 520.774,418.736 518.441,417.903 516.5,416C 518.546,413.097 521.213,411.264 524.5,410.5C 523.895,402.937 521.729,395.937 518,389.5C 514.574,402.721 508.074,414.054 498.5,423.5C 499.443,416.287 498.109,409.62 494.5,403.5C 497.899,395.365 496.899,387.865 491.5,381C 493.609,379.859 495.442,378.359 497,376.5C 498.048,371.193 496.548,366.693 492.5,363C 487.271,360.379 482.771,361.212 479,365.5C 478.517,366.448 478.351,367.448 478.5,368.5C 473.711,368.376 469.045,367.542 464.5,366C 452.016,364.968 445.016,370.801 443.5,383.5C 445.216,383.629 446.883,383.962 448.5,384.5C 445.447,394.494 447.78,402.827 455.5,409.5C 453.544,415.41 450.544,420.744 446.5,425.5C 445.833,425.5 445.5,425.833 445.5,426.5C 441.227,427.775 438.227,430.442 436.5,434.5C 436.833,409.824 436.5,385.158 435.5,360.5C 434.692,360.192 434.025,359.692 433.5,359C 414.17,358.5 394.836,358.333 375.5,358.5C 383.79,335.546 398.79,318.546 420.5,307.5C 441.335,298.476 462.668,297.143 484.5,303.5 Z"/></g>
<g><path style="opacity:1" fill="#fd6f8b" d="M 355.5,300.5 C 362.004,300.138 363.671,302.638 360.5,308C 354.785,308.401 353.119,305.901 355.5,300.5 Z"/></g>
<g><path style="opacity:1" fill="#fd6886" d="M 348.5,311.5 C 351.805,313.654 354.305,316.654 356,320.5C 358.397,317.6 361.23,315.267 364.5,313.5C 368.152,326.048 364.152,335.548 352.5,342C 340.331,345.799 330.997,342.299 324.5,331.5C 324.709,330.914 325.043,330.414 325.5,330C 328.882,329.824 332.215,329.324 335.5,328.5C 333.563,324.949 333.229,321.283 334.5,317.5C 338.112,318.639 341.446,320.306 344.5,322.5C 345.1,318.537 346.433,314.87 348.5,311.5 Z"/></g>
<g><path style="opacity:1" fill="#fd6d8a" d="M 322.5,317.5 C 324.144,317.286 325.644,317.62 327,318.5C 328.848,324.653 326.848,326.653 321,324.5C 320.185,321.802 320.685,319.468 322.5,317.5 Z"/></g>
<g><path style="opacity:1" fill="#514a67" d="M 375.5,358.5 C 394.836,358.333 414.17,358.5 433.5,359C 434.025,359.692 434.692,360.192 435.5,360.5C 436.5,385.158 436.833,409.824 436.5,434.5C 436.008,436.819 435.008,438.819 433.5,440.5C 433.828,414.259 433.495,388.092 432.5,362C 394.168,361.5 355.835,361.333 317.5,361.5C 317.5,383.833 317.5,406.167 317.5,428.5C 316.391,428.443 315.391,428.11 314.5,427.5C 314.83,411.325 314.496,395.325 313.5,379.5C 314.562,377.766 314.562,376.099 313.5,374.5C 314.326,370.018 314.826,365.351 315,360.5C 315.5,360 316,359.5 316.5,359C 336.164,358.5 355.831,358.333 375.5,358.5 Z"/></g>
<g><path style="opacity:1" fill="#312f42" d="M 313.5,374.5 C 314.562,376.099 314.562,377.766 313.5,379.5C 311.948,382.112 309.614,383.445 306.5,383.5C 303.185,383.972 300.851,385.805 299.5,389C 292.947,388.022 288.447,390.522 286,396.5C 284.776,393.527 282.776,392.86 280,394.5C 279.333,396.167 279.333,397.833 280,399.5C 281.846,403.855 283.679,408.188 285.5,412.5C 280.795,413.983 276.128,413.65 271.5,411.5C 267.066,408.401 263.733,404.401 261.5,399.5C 258.731,392.435 257.898,385.101 259,377.5C 263.089,371.407 267.922,365.907 273.5,361C 277.375,359.48 281.375,359.146 285.5,360C 290.5,361.682 295,364.182 299,367.5C 302.98,364.299 304.813,365.299 304.5,370.5C 306.199,370.34 307.866,370.506 309.5,371C 310.591,372.55 311.924,373.717 313.5,374.5 Z"/></g>
<g><path style="opacity:1" fill="#47059a" d="M 433.5,440.5 C 426.167,440.5 418.833,440.5 411.5,440.5C 409.051,434.039 407.217,427.373 406,420.5C 399.215,413.322 394.048,414.322 390.5,423.5C 392.268,428.453 395.101,432.786 399,436.5C 399.791,437.745 400.291,439.078 400.5,440.5C 376.167,440.5 351.833,440.5 327.5,440.5C 326.525,438.205 325.192,436.205 323.5,434.5C 321.806,432.139 319.806,430.139 317.5,428.5C 317.5,406.167 317.5,383.833 317.5,361.5C 355.835,361.333 394.168,361.5 432.5,362C 433.495,388.092 433.828,414.259 433.5,440.5 Z"/></g>
<g><path style="opacity:1" fill="#313043" d="M 498.5,423.5 C 498.314,427.353 496.314,429.019 492.5,428.5C 484.782,428.181 477.282,426.848 470,424.5C 469.781,423.062 469.281,421.729 468.5,420.5C 467.614,421.325 467.281,422.325 467.5,423.5C 463.833,423.5 460.167,423.5 456.5,423.5C 458.258,420.663 459.425,417.663 460,414.5C 457.642,417.222 455.809,420.222 454.5,423.5C 451.933,424.475 449.267,425.142 446.5,425.5C 450.544,420.744 453.544,415.41 455.5,409.5C 459.081,403.377 460.248,396.71 459,389.5C 456.743,387.375 454.743,385.042 453,382.5C 451.89,384.037 450.39,384.703 448.5,384.5C 446.883,383.962 445.216,383.629 443.5,383.5C 445.016,370.801 452.016,364.968 464.5,366C 469.045,367.542 473.711,368.376 478.5,368.5C 478.351,367.448 478.517,366.448 479,365.5C 482.771,361.212 487.271,360.379 492.5,363C 496.548,366.693 498.048,371.193 497,376.5C 495.442,378.359 493.609,379.859 491.5,381C 496.899,387.865 497.899,395.365 494.5,403.5C 498.109,409.62 499.443,416.287 498.5,423.5 Z"/></g>
<g><path style="opacity:1" fill="#d8d2df" d="M 403.5,364.5 C 405.665,364.116 407.332,364.783 408.5,366.5C 407.332,368.217 405.665,368.884 403.5,368.5C 403.5,367.167 403.5,365.833 403.5,364.5 Z"/></g>
<g><path style="opacity:1" fill="#d8d2df" d="M 412.5,364.5 C 413.833,364.5 415.167,364.5 416.5,364.5C 416.5,365.833 416.5,367.167 416.5,368.5C 412.56,369.234 411.227,367.901 412.5,364.5 Z"/></g>
<g><path style="opacity:1" fill="#dedbe2" d="M 420.5,364.5 C 421.833,364.5 423.167,364.5 424.5,364.5C 424.5,365.833 424.5,367.167 424.5,368.5C 423.167,368.5 421.833,368.5 420.5,368.5C 420.5,367.167 420.5,365.833 420.5,364.5 Z"/></g>
<g><path style="opacity:1" fill="#9775c0" d="M 329.5,364.5 C 331.833,364.5 334.167,364.5 336.5,364.5C 336.5,366.167 336.5,367.833 336.5,369.5C 334.167,369.5 331.833,369.5 329.5,369.5C 329.5,367.833 329.5,366.167 329.5,364.5 Z"/></g>
<g><path style="opacity:1" fill="#8962b9" d="M 324.5,370.5 C 359.84,370.167 395.173,370.5 430.5,371.5C 412.833,371.833 395.167,372.167 377.5,372.5C 359.487,372.5 341.82,371.833 324.5,370.5 Z"/></g>
<g><path style="opacity:1" fill="#bfaed3" d="M 328.5,381.5 C 329.833,381.5 331.167,381.5 332.5,381.5C 332.5,382.5 332.5,383.5 332.5,384.5C 331.167,384.5 329.833,384.5 328.5,384.5C 328.5,383.5 328.5,382.5 328.5,381.5 Z"/></g>
<g><path style="opacity:1" fill="#d7d0de" d="M 334.5,381.5 C 339.875,381.172 345.208,381.505 350.5,382.5C 347.833,382.833 345.167,383.167 342.5,383.5C 339.41,383.478 336.743,382.812 334.5,381.5 Z"/></g>
<g><path style="opacity:1" fill="#d7d1de" d="M 367.5,381.5 C 372.875,381.172 378.208,381.505 383.5,382.5C 380.833,382.833 378.167,383.167 375.5,383.5C 372.41,383.478 369.743,382.812 367.5,381.5 Z"/></g>
<g><path style="opacity:1" fill="#f7d3db" d="M 313.5,379.5 C 314.496,395.325 314.83,411.325 314.5,427.5C 310.547,426.239 306.547,425.072 302.5,424C 299.833,422 297.167,420 294.5,418C 288.175,417.5 281.842,417.334 275.5,417.5C 274.5,415.187 273.166,413.187 271.5,411.5C 276.128,413.65 280.795,413.983 285.5,412.5C 301.245,409.393 308.245,399.726 306.5,383.5C 309.614,383.445 311.948,382.112 313.5,379.5 Z"/></g>
<g><path style="opacity:1" fill="#c1b1d4" d="M 352.5,381.5 C 354.288,381.215 355.955,381.548 357.5,382.5C 355.203,385.29 353.536,384.956 352.5,381.5 Z"/></g>
<g><path style="opacity:1" fill="#c1b1d4" d="M 359.5,381.5 C 361.288,381.215 362.955,381.548 364.5,382.5C 362.203,385.29 360.536,384.956 359.5,381.5 Z"/></g>
<g><path style="opacity:1" fill="#9e6069" d="M 306.5,383.5 C 308.245,399.726 301.245,409.393 285.5,412.5C 283.679,408.188 281.846,403.855 280,399.5C 279.333,397.833 279.333,396.167 280,394.5C 282.776,392.86 284.776,393.527 286,396.5C 288.447,390.522 292.947,388.022 299.5,389C 300.851,385.805 303.185,383.972 306.5,383.5 Z"/></g>
<g><path style="opacity:1" fill="#f9b2b3" d="M 455.5,409.5 C 447.78,402.827 445.447,394.494 448.5,384.5C 450.39,384.703 451.89,384.037 453,382.5C 454.743,385.042 456.743,387.375 459,389.5C 460.248,396.71 459.081,403.377 455.5,409.5 Z"/></g>
<g><path style="opacity:1" fill="#ccc0d9" d="M 341.5,386.5 C 346.5,386.5 351.5,386.5 356.5,386.5C 356.5,387.5 356.5,388.5 356.5,389.5C 351.5,389.5 346.5,389.5 341.5,389.5C 341.5,388.5 341.5,387.5 341.5,386.5 Z"/></g>
<g><path style="opacity:1" fill="#c7b9d7" d="M 359.5,386.5 C 360.833,386.5 362.167,386.5 363.5,386.5C 363.5,387.5 363.5,388.5 363.5,389.5C 362.167,389.5 360.833,389.5 359.5,389.5C 359.5,388.5 359.5,387.5 359.5,386.5 Z"/></g>
<g><path style="opacity:1" fill="#c7bad7" d="M 366.5,386.5 C 367.833,386.5 369.167,386.5 370.5,386.5C 370.5,387.5 370.5,388.5 370.5,389.5C 369.167,389.5 367.833,389.5 366.5,389.5C 366.5,388.5 366.5,387.5 366.5,386.5 Z"/></g>
<g><path style="opacity:1" fill="#ccc0d9" d="M 374.5,386.5 C 379.5,386.5 384.5,386.5 389.5,386.5C 389.5,387.5 389.5,388.5 389.5,389.5C 384.5,389.5 379.5,389.5 374.5,389.5C 374.5,388.5 374.5,387.5 374.5,386.5 Z"/></g>
<g><path style="opacity:1" fill="#b7a1cf" d="M 335.5,386.5 C 337.346,386.222 338.68,386.889 339.5,388.5C 337.833,389.833 336.167,389.833 334.5,388.5C 334.863,387.817 335.196,387.15 335.5,386.5 Z"/></g>
<g><path style="opacity:1" fill="#dcd9e1" d="M 341.5,392.5 C 342.978,392.238 344.311,392.571 345.5,393.5C 344.833,393.833 344.167,394.167 343.5,394.5C 342.287,394.253 341.62,393.586 341.5,392.5 Z"/></g>
<g><path style="opacity:1" fill="#dad5e0" d="M 348.5,392.5 C 353.544,392.173 358.544,392.506 363.5,393.5C 361,393.833 358.5,394.167 356,394.5C 353.071,394.475 350.571,393.809 348.5,392.5 Z"/></g>
<g><path style="opacity:1" fill="#cec3da" d="M 365.5,392.5 C 367.288,392.215 368.955,392.548 370.5,393.5C 369.667,393.833 368.833,394.167 368,394.5C 366.624,394.316 365.791,393.649 365.5,392.5 Z"/></g>
<g><path style="opacity:1" fill="#cdc2da" d="M 372.5,392.5 C 374.288,392.215 375.955,392.548 377.5,393.5C 376.667,393.833 375.833,394.167 375,394.5C 373.624,394.316 372.791,393.649 372.5,392.5 Z"/></g>
<g><path style="opacity:1" fill="#d5cede" d="M 380.5,392.5 C 385.875,392.172 391.208,392.505 396.5,393.5C 393.833,393.833 391.167,394.167 388.5,394.5C 385.41,394.478 382.743,393.812 380.5,392.5 Z"/></g>
<g><path style="opacity:1" fill="#e0dde3" d="M 354.5,397.5 C 359.875,397.172 365.208,397.505 370.5,398.5C 367.833,398.833 365.167,399.167 362.5,399.5C 359.41,399.478 356.743,398.812 354.5,397.5 Z"/></g>
<g><path style="opacity:1" fill="#c3b3d5" d="M 347.5,397.5 C 349.288,397.215 350.955,397.548 352.5,398.5C 350.203,401.29 348.536,400.956 347.5,397.5 Z"/></g>
<g><path style="opacity:1" fill="#c9bbd8" d="M 372.5,397.5 C 373.833,397.5 375.167,397.5 376.5,397.5C 376.5,398.5 376.5,399.5 376.5,400.5C 375.167,400.5 373.833,400.5 372.5,400.5C 372.5,399.5 372.5,398.5 372.5,397.5 Z"/></g>
<g><path style="opacity:1" fill="#c9bcd8" d="M 379.5,397.5 C 380.833,397.5 382.167,397.5 383.5,397.5C 383.5,398.5 383.5,399.5 383.5,400.5C 382.167,400.5 380.833,400.5 379.5,400.5C 379.5,399.5 379.5,398.5 379.5,397.5 Z"/></g>
<g><path style="opacity:1" fill="#c7bad7" d="M 348.5,402.5 C 353.796,403.688 353.796,404.522 348.5,405C 347.402,404.23 347.402,403.397 348.5,402.5 Z"/></g>
<g><path style="opacity:1" fill="#c8bad7" d="M 372.5,402.5 C 373.833,402.5 375.167,402.5 376.5,402.5C 376.5,403.5 376.5,404.5 376.5,405.5C 375.167,405.5 373.833,405.5 372.5,405.5C 372.5,404.5 372.5,403.5 372.5,402.5 Z"/></g>
<g><path style="opacity:1" fill="#c8bbd7" d="M 379.5,402.5 C 380.833,402.5 382.167,402.5 383.5,402.5C 383.5,403.5 383.5,404.5 383.5,405.5C 382.167,405.5 380.833,405.5 379.5,405.5C 379.5,404.5 379.5,403.5 379.5,402.5 Z"/></g>
<g><path style="opacity:1" fill="#d1c7dc" d="M 354.5,403.5 C 359.875,403.172 365.208,403.505 370.5,404.5C 367.833,404.833 365.167,405.167 362.5,405.5C 359.41,405.478 356.743,404.812 354.5,403.5 Z"/></g>
<g><path style="opacity:0.873" fill="#fed7e0" d="M 231.5,432.5 C 226.287,425.435 222.621,417.602 220.5,409C 220.514,407.615 220.848,406.449 221.5,405.5C 222.423,404.697 223.423,404.53 224.5,405C 227.973,409.308 231.64,413.475 235.5,417.5C 234.732,421.445 234.232,425.445 234,429.5C 233.764,431.119 232.931,432.119 231.5,432.5 Z"/></g>
<g><path style="opacity:1" fill="#d6cfde" d="M 347.5,408.5 C 352.875,408.172 358.208,408.505 363.5,409.5C 360.833,409.833 358.167,410.167 355.5,410.5C 352.41,410.478 349.743,409.812 347.5,408.5 Z"/></g>
<g><path style="opacity:1" fill="#d7d0df" d="M 341.5,408.5 C 342.978,408.238 344.311,408.571 345.5,409.5C 344.833,409.833 344.167,410.167 343.5,410.5C 342.287,410.253 341.62,409.586 341.5,408.5 Z"/></g>
<g><path style="opacity:1" fill="#c9bcd8" d="M 365.5,408.5 C 367.288,408.215 368.955,408.548 370.5,409.5C 369.667,409.833 368.833,410.167 368,410.5C 366.624,410.316 365.791,409.649 365.5,408.5 Z"/></g>
<g><path style="opacity:1" fill="#c8bbd8" d="M 372.5,408.5 C 374.288,408.215 375.955,408.548 377.5,409.5C 376.667,409.833 375.833,410.167 375,410.5C 373.624,410.316 372.791,409.649 372.5,408.5 Z"/></g>
<g><path style="opacity:1" fill="#b9a5d0" d="M 334.5,413.5 C 336.288,413.215 337.955,413.548 339.5,414.5C 337.203,417.29 335.536,416.956 334.5,413.5 Z"/></g>
<g><path style="opacity:1" fill="#d8d3df" d="M 359.5,413.5 C 360.978,413.238 362.311,413.571 363.5,414.5C 362.833,414.833 362.167,415.167 361.5,415.5C 360.287,415.253 359.62,414.586 359.5,413.5 Z"/></g>
<g><path style="opacity:1" fill="#d9d3df" d="M 366.5,413.5 C 367.978,413.238 369.311,413.571 370.5,414.5C 369.833,414.833 369.167,415.167 368.5,415.5C 367.287,415.253 366.62,414.586 366.5,413.5 Z"/></g>
<g><path style="opacity:1" fill="#c0b0d4" d="M 341.5,413.5 C 346.5,413.5 351.5,413.5 356.5,413.5C 356.5,414.5 356.5,415.5 356.5,416.5C 351.5,416.5 346.5,416.5 341.5,416.5C 341.5,415.5 341.5,414.5 341.5,413.5 Z"/></g>
<g><path style="opacity:1" fill="#f9b1b5" d="M 411.5,440.5 C 412.11,441.391 412.443,442.391 412.5,443.5C 413.363,445.421 414.029,447.421 414.5,449.5C 411.696,451.405 408.696,453.071 405.5,454.5C 404.538,450.605 403.204,446.939 401.5,443.5C 401.443,442.391 401.11,441.391 400.5,440.5C 400.291,439.078 399.791,437.745 399,436.5C 395.101,432.786 392.268,428.453 390.5,423.5C 394.048,414.322 399.215,413.322 406,420.5C 407.217,427.373 409.051,434.039 411.5,440.5 Z"/></g>
<g><path style="opacity:1" fill="#23bdab" d="M 275.5,417.5 C 281.842,417.334 288.175,417.5 294.5,418C 297.167,420 299.833,422 302.5,424C 306.547,425.072 310.547,426.239 314.5,427.5C 315.391,428.11 316.391,428.443 317.5,428.5C 319.806,430.139 321.806,432.139 323.5,434.5C 318.251,434.875 314.085,437.208 311,441.5C 309.616,448.411 309.116,455.411 309.5,462.5C 287.721,458.028 265.721,455.361 243.5,454.5C 247.304,439.53 256.637,430.03 271.5,426C 272.703,423.095 274.036,420.262 275.5,417.5 Z"/></g>
<g><path style="opacity:1" fill="#b0a9b2" d="M 456.5,423.5 C 455.833,423.5 455.167,423.5 454.5,423.5C 455.809,420.222 457.642,417.222 460,414.5C 459.425,417.663 458.258,420.663 456.5,423.5 Z"/></g>
<g><path style="opacity:1" fill="#c6b7d6" d="M 328.5,418.5 C 329.833,418.5 331.167,418.5 332.5,418.5C 332.5,419.5 332.5,420.5 332.5,421.5C 331.167,421.5 329.833,421.5 328.5,421.5C 328.5,420.5 328.5,419.5 328.5,418.5 Z"/></g>
<g><path style="opacity:1" fill="#c4b5d6" d="M 353.5,418.5 C 357.999,418.935 358.332,419.935 354.5,421.5C 352.197,421.124 351.863,420.124 353.5,418.5 Z"/></g>
<g><path style="opacity:1" fill="#c4b4d5" d="M 360.5,418.5 C 364.999,418.935 365.332,419.935 361.5,421.5C 359.197,421.124 358.863,420.124 360.5,418.5 Z"/></g>
<g><path style="opacity:1" fill="#d5cede" d="M 334.5,419.5 C 339.875,419.172 345.208,419.505 350.5,420.5C 347.833,420.833 345.167,421.167 342.5,421.5C 339.41,421.478 336.743,420.812 334.5,419.5 Z"/></g>
<g><path style="opacity:1" fill="#d5cfde" d="M 367.5,419.5 C 372.875,419.172 378.208,419.505 383.5,420.5C 380.833,420.833 378.167,421.167 375.5,421.5C 372.41,421.478 369.743,420.812 367.5,419.5 Z"/></g>
<g><path style="opacity:1" fill="#23bdaa" d="M 492.5,428.5 C 495.408,429.954 498.408,431.454 501.5,433C 506.975,439.446 511.309,446.613 514.5,454.5C 493.209,454.327 472.209,456.66 451.5,461.5C 454.988,455.194 458.488,448.86 462,442.5C 463.196,430.195 457.696,424.862 445.5,426.5C 445.5,425.833 445.833,425.5 446.5,425.5C 449.267,425.142 451.933,424.475 454.5,423.5C 455.167,423.5 455.833,423.5 456.5,423.5C 460.167,423.5 463.833,423.5 467.5,423.5C 467.281,422.325 467.614,421.325 468.5,420.5C 469.281,421.729 469.781,423.062 470,424.5C 477.282,426.848 484.782,428.181 492.5,428.5 Z"/></g>
<g><path style="opacity:1" fill="#2ed3c3" d="M 451.5,461.5 C 445.828,470.686 440.328,480.019 435,489.5C 429.209,494.18 423.042,494.68 416.5,491C 415.789,489.745 414.956,488.579 414,487.5C 411.988,479.963 409.488,472.63 406.5,465.5C 405.942,462.656 405.275,459.822 404.5,457C 404.528,455.93 404.861,455.097 405.5,454.5C 408.696,453.071 411.696,451.405 414.5,449.5C 415.376,449.369 416.043,449.702 416.5,450.5C 418.682,454.864 420.849,459.198 423,463.5C 426.437,456.959 429.604,450.292 432.5,443.5C 433.404,442.791 433.737,441.791 433.5,440.5C 435.008,438.819 436.008,436.819 436.5,434.5C 438.227,430.442 441.227,427.775 445.5,426.5C 457.696,424.862 463.196,430.195 462,442.5C 458.488,448.86 454.988,455.194 451.5,461.5 Z"/></g>
<g><path style="opacity:1" fill="#2fd1c1" d="M 323.5,434.5 C 325.192,436.205 326.525,438.205 327.5,440.5C 327.932,441.71 328.599,442.71 329.5,443.5C 329.796,445.403 330.463,447.07 331.5,448.5C 332.721,454.402 334.388,460.068 336.5,465.5C 336.5,466.833 336.5,468.167 336.5,469.5C 327.446,467.371 318.446,465.038 309.5,462.5C 309.116,455.411 309.616,448.411 311,441.5C 314.085,437.208 318.251,434.875 323.5,434.5 Z"/></g>
<g><path style="opacity:1" fill="#484162" d="M 411.5,440.5 C 418.833,440.5 426.167,440.5 433.5,440.5C 433.737,441.791 433.404,442.791 432.5,443.5C 425.833,443.5 419.167,443.5 412.5,443.5C 412.443,442.391 412.11,441.391 411.5,440.5 Z"/></g>
<g><path style="opacity:1" fill="#fad5dd" d="M 329.5,443.5 C 339.833,443.5 350.167,443.5 360.5,443.5C 360.5,445.167 360.5,446.833 360.5,448.5C 350.833,448.5 341.167,448.5 331.5,448.5C 330.463,447.07 329.796,445.403 329.5,443.5 Z"/></g>
<g><path style="opacity:1" fill="#e5e5e5" d="M 331.5,448.5 C 341.167,448.5 350.833,448.5 360.5,448.5C 360.822,454.358 360.489,460.025 359.5,465.5C 351.833,465.5 344.167,465.5 336.5,465.5C 334.388,460.068 332.721,454.402 331.5,448.5 Z"/></g>
<g><path style="opacity:1" fill="#e6e4e4" d="M 401.5,443.5 C 403.204,446.939 404.538,450.605 405.5,454.5C 404.861,455.097 404.528,455.93 404.5,457C 405.275,459.822 405.942,462.656 406.5,465.5C 401.167,465.5 395.833,465.5 390.5,465.5C 390.5,458.167 390.5,450.833 390.5,443.5C 394.167,443.5 397.833,443.5 401.5,443.5 Z"/></g>
<g><path style="opacity:1" fill="#e9e8e8" d="M 412.5,443.5 C 419.167,443.5 425.833,443.5 432.5,443.5C 429.604,450.292 426.437,456.959 423,463.5C 420.849,459.198 418.682,454.864 416.5,450.5C 416.043,449.702 415.376,449.369 414.5,449.5C 414.029,447.421 413.363,445.421 412.5,443.5 Z"/></g>
<g><path style="opacity:0.004" fill="#000000" d="M 234.5,454.5 C 240.491,461.145 245.491,468.478 249.5,476.5C 255.52,479.562 261.853,481.729 268.5,483C 278.753,484.925 289.086,486.259 299.5,487C 307.191,493.18 315.524,498.347 324.5,502.5C 322.723,503.6 320.723,504.434 318.5,505C 309.712,506.616 301.045,508.116 292.5,509.5C 274.577,508.52 257.243,504.687 240.5,498C 238.998,497.417 237.665,496.584 236.5,495.5C 234.629,491.216 232.962,486.883 231.5,482.5C 230.856,475.007 230.189,467.507 229.5,460C 229.244,456.454 230.911,454.621 234.5,454.5 Z"/></g>
<g><path style="opacity:0.004" fill="#000000" d="M 522.5,454.5 C 524.117,455.038 525.784,455.371 527.5,455.5C 527.54,465.228 526.874,474.895 525.5,484.5C 524.034,488.221 522.367,491.888 520.5,495.5C 504.543,503.739 487.543,508.073 469.5,508.5C 457.748,508.784 446.414,507.117 435.5,503.5C 445.103,499.03 454.103,493.53 462.5,487C 478.033,485.913 493.033,482.58 507.5,477C 512.386,469.385 517.386,461.885 522.5,454.5 Z"/></g>
<g><path style="opacity:1" fill="#9c616a" d="M 360.5,443.5 C 361.328,449.987 361.828,456.654 362,463.5C 365.143,459.513 368.976,456.513 373.5,454.5C 381.942,456.976 383.609,461.809 378.5,469C 374.167,470.667 369.833,472.333 365.5,474C 363.676,474.66 362.343,475.827 361.5,477.5C 358.167,479.833 354.833,482.167 351.5,484.5C 350.167,482.833 348.833,481.167 347.5,479.5C 347.34,477.801 347.506,476.134 348,474.5C 352.175,471.842 356.008,468.842 359.5,465.5C 360.489,460.025 360.822,454.358 360.5,448.5C 360.5,446.833 360.5,445.167 360.5,443.5 Z"/></g>
<g><path style="opacity:0.976" fill="#2e2d40" d="M 234.5,454.5 C 237.5,454.5 240.5,454.5 243.5,454.5C 265.721,455.361 287.721,458.028 309.5,462.5C 318.446,465.038 327.446,467.371 336.5,469.5C 336.5,468.167 336.5,466.833 336.5,465.5C 344.167,465.5 351.833,465.5 359.5,465.5C 356.008,468.842 352.175,471.842 348,474.5C 347.506,476.134 347.34,477.801 347.5,479.5C 347.01,484.287 346.01,488.953 344.5,493.5C 338.779,497.027 332.779,500.027 326.5,502.5C 325.833,502.5 325.167,502.5 324.5,502.5C 315.524,498.347 307.191,493.18 299.5,487C 289.086,486.259 278.753,484.925 268.5,483C 261.853,481.729 255.52,479.562 249.5,476.5C 245.491,468.478 240.491,461.145 234.5,454.5 Z"/></g>
<g><path style="opacity:0.969" fill="#303043" d="M 327.5,440.5 C 351.833,440.5 376.167,440.5 400.5,440.5C 401.11,441.391 401.443,442.391 401.5,443.5C 397.833,443.5 394.167,443.5 390.5,443.5C 390.5,450.833 390.5,458.167 390.5,465.5C 395.833,465.5 401.167,465.5 406.5,465.5C 409.488,472.63 411.988,479.963 414,487.5C 414.956,488.579 415.789,489.745 416.5,491C 423.042,494.68 429.209,494.18 435,489.5C 440.328,480.019 445.828,470.686 451.5,461.5C 472.209,456.66 493.209,454.327 514.5,454.5C 517.167,454.5 519.833,454.5 522.5,454.5C 517.386,461.885 512.386,469.385 507.5,477C 493.033,482.58 478.033,485.913 462.5,487C 454.103,493.53 445.103,499.03 435.5,503.5C 434.833,503.5 434.167,503.5 433.5,503.5C 426.187,501.093 419.353,497.76 413,493.5C 411.002,488.341 409.835,483.008 409.5,477.5C 393.5,477.5 377.5,477.5 361.5,477.5C 362.343,475.827 363.676,474.66 365.5,474C 369.833,472.333 374.167,470.667 378.5,469C 383.609,461.809 381.942,456.976 373.5,454.5C 368.976,456.513 365.143,459.513 362,463.5C 361.828,456.654 361.328,449.987 360.5,443.5C 350.167,443.5 339.833,443.5 329.5,443.5C 328.599,442.71 327.932,441.71 327.5,440.5 Z"/></g>
<g><path style="opacity:1" fill="#ebc9d2" d="M 372.5,443.5 C 374.5,443.5 376.5,443.5 378.5,443.5C 378.985,448.159 377.152,449.492 373,447.5C 372.51,446.207 372.343,444.873 372.5,443.5 Z"/></g>
<g><path style="opacity:0.987" fill="#d1c1e4" d="M 361.5,477.5 C 377.5,477.5 393.5,477.5 409.5,477.5C 409.835,483.008 411.002,488.341 413,493.5C 419.353,497.76 426.187,501.093 433.5,503.5C 430.859,505.453 427.859,506.953 424.5,508C 419.042,509.45 413.709,510.95 408.5,512.5C 389.5,513.833 370.5,513.833 351.5,512.5C 344.588,510.069 337.254,507.569 329.5,505C 328.058,504.623 327.058,503.79 326.5,502.5C 332.779,500.027 338.779,497.027 344.5,493.5C 346.837,491.334 349.337,489.334 352,487.5C 352.47,486.423 352.303,485.423 351.5,484.5C 354.833,482.167 358.167,479.833 361.5,477.5 Z"/></g>
<g><path style="opacity:1" fill="#43c5bb" d="M 347.5,479.5 C 348.833,481.167 350.167,482.833 351.5,484.5C 352.303,485.423 352.47,486.423 352,487.5C 349.337,489.334 346.837,491.334 344.5,493.5C 346.01,488.953 347.01,484.287 347.5,479.5 Z"/></g>
<g><path style="opacity:0.004" fill="#fefdfe" d="M 324.5,502.5 C 325.167,502.5 325.833,502.5 326.5,502.5C 327.058,503.79 328.058,504.623 329.5,505C 337.254,507.569 344.588,510.069 351.5,512.5C 332.83,512.667 314.164,512.5 295.5,512C 294.627,510.955 293.627,510.122 292.5,509.5C 301.045,508.116 309.712,506.616 318.5,505C 320.723,504.434 322.723,503.6 324.5,502.5 Z"/></g>
<g><path style="opacity:0.004" fill="#fefdfe" d="M 433.5,503.5 C 434.167,503.5 434.833,503.5 435.5,503.5C 446.414,507.117 457.748,508.784 469.5,508.5C 468.426,509.885 467.093,511.051 465.5,512C 446.503,512.5 427.503,512.667 408.5,512.5C 413.709,510.95 419.042,509.45 424.5,508C 427.859,506.953 430.859,505.453 433.5,503.5 Z"/></g>
</svg>
